<svg xmlns="http://www.w3.org/2000/svg" width="24" height="24" viewBox="0 0 24 24"><g><path fill="#4285F4" d="M21.805 10.023h-9.765v3.977h5.617c-.242 1.242-1.242 3.648-5.617 3.648-3.375 0-6.125-2.789-6.125-6.148 0-3.359 2.75-6.148 6.125-6.148 1.922 0 3.211.82 3.953 1.523l2.703-2.625c-1.703-1.57-3.898-2.547-6.656-2.547-5.523 0-10 4.477-10 10s4.477 10 10 10c5.781 0 9.594-4.055 9.594-9.773 0-.656-.07-1.156-.156-1.457z"/><path fill="#34A853" d="M3.545 7.548l3.289 2.414c.898-1.367 2.398-2.414 4.206-2.414 1.148 0 2.211.398 3.039 1.172l2.734-2.648c-1.484-1.367-3.398-2.072-5.773-2.072-3.789 0-6.984 3.086-6.984 6.914 0 1.086.242 2.117.672 3.023z"/><path fill="#FBBC05" d="M12.04 22c2.672 0 4.922-.883 6.563-2.406l-3.047-2.484c-.844.57-1.922.914-3.516.914-2.719 0-5.031-1.828-5.859-4.297l-3.242 2.5c1.617 3.188 5.016 5.773 9.101 5.773z"/><path fill="#EA4335" d="M21.805 10.023h-9.765v3.977h5.617c-.242 1.242-1.242 3.648-5.617 3.648-3.375 0-6.125-2.789-6.125-6.148 0-3.359 2.75-6.148 6.125-6.148 1.922 0 3.211.82 3.953 1.523l2.703-2.625c-1.703-1.57-3.898-2.547-6.656-2.547-5.523 0-10 4.477-10 10s4.477 10 10 10c5.781 0 9.594-4.055 9.594-9.773 0-.656-.07-1.156-.156-1.457z"/></g></svg>